<?xml version="1.0"?>
<svg xmlns="http://www.w3.org/2000/svg" height="512px" viewBox="-64 0 454 454.22613" width="512px"><path d="m283.542969 72.226562h-42.429688v-3.765624c-.003906-16.609376-13.402343-30.105469-30.011719-30.234376h-7.765624c-1.089844-21.417968-18.773438-38.226562-40.222657-38.226562-21.445312 0-39.128906 16.808594-40.21875 38.226562h-7.765625c-16.609375.128907-30.007812 13.625-30.015625 30.234376v3.765624h-42.429687c-23.722656 0-42.570313 19.484376-42.570313 43.207032v295.769531c-.1835935 23.574219 18.777344 42.835937 42.351563 43.023437h241.078125c23.574219-.066406 42.632812-19.226562 42.570312-42.800781 0-.074219 0-.144531 0-.21875v-295.773437c0-23.722656-18.847656-43.207032-42.570312-43.207032zm-120.429688-52.234374c10.371094.09375 19.03125 7.925781 20.167969 18.234374h-40.335938c1.136719-10.308593 9.800782-18.140624 20.167969-18.234374zm-58 48.46875c-.003906-5.566407 4.445313-10.117188 10.015625-10.234376h95.972656c5.566407.117188 10.019532 4.667969 10.011719 10.234376v39.765624h-116zm201 342.742187c.199219 12.515625-9.789062 22.824219-22.304687 23.023437-.089844 0-.175782 0-.265625 0h-240.859375c-12.515625-.054687-22.621094-10.242187-22.570313-22.761718v-296.03125c0-12.695313 9.875-23.207032 22.570313-23.207032h42.429687v26.378907c.042969 5.355469 4.417969 9.667969 9.773438 9.625h.242187 135.972656c2.570313.085937 5.074219-.855469 6.953126-2.617188 1.875-1.761719 2.976562-4.195312 3.058593-6.769531 0-.078125 0-.160156 0-.238281v-26.378907h42.429688c12.695312 0 22.570312 10.511719 22.570312 23.207032zm0 0" fill="#FFFFFF"/><path d="m67.726562 332.226562h93.289063c5.523437 0 10-4.476562 10-10 0-5.523437-4.476563-10-10-10h-93.289063c-5.523437 0-10 4.476563-10 10 0 5.523438 4.476563 10 10 10zm0 0" fill="#FFFFFF"/><path d="m258.5 361.226562h-190.773438c-5.523437 0-10 4.476563-10 10 0 5.523438 4.476563 10 10 10h190.773438c5.523438 0 10-4.476562 10-10 0-5.523437-4.476562-10-10-10zm0 0" fill="#FFFFFF"/><path d="m136.039062 258.117188c3.671876 3.875 9.738282 4.183593 13.785157.699218l79.277343-68.289062c4.195313-3.589844 4.691407-9.902344 1.101563-14.101563-3.589844-4.195312-9.90625-4.691406-14.101563-1.101562l-.054687.050781-72.054687 62.066406-33.082032-34.898437c-3.800781-4.011719-10.132812-4.179688-14.140625-.378907-4.007812 3.800782-4.175781 10.128907-.375 14.136719zm0 0" fill="#FFFFFF"/></svg>
